<?xml version="1.0" encoding="UTF-8" standalone="no"?>
<!-- Created with Inkscape (http://www.inkscape.org/) -->

<svg
   xmlns:dc="http://purl.org/dc/elements/1.1/"
   xmlns:cc="http://creativecommons.org/ns#"
   xmlns:rdf="http://www.w3.org/1999/02/22-rdf-syntax-ns#"
   xmlns:svg="http://www.w3.org/2000/svg"
   xmlns="http://www.w3.org/2000/svg"
   version="1.1"
   width="256"
   height="256"
   viewBox="0 0 256 256"
   id="Layer_1"
   xml:space="preserve"><metadata
     id="metadata36"><rdf:RDF><cc:Work
         rdf:about=""><dc:format>image/svg+xml</dc:format><dc:type
           rdf:resource="http://purl.org/dc/dcmitype/StillImage" /><dc:title></dc:title></cc:Work></rdf:RDF></metadata><defs
     id="defs34" /><g
     transform="matrix(0.71111,0,0,0.71111,3.7162796,0.41745039)"
     id="g3"><path
       d="m 175.179,14.712 c -90.181,0 -163.307,74.105 -163.307,165.505 0,3.127 0.291,6.175 0.47,9.257 C 17.1,102.411 88.08,33.231 175.177,33.231 c 87.104,0 158.071,69.178 162.848,156.243 0.157,-3.082 0.452,-6.13 0.452,-9.257 C 338.468,88.82 265.362,14.712 175.179,14.712 z"
       id="path5"
       style="fill:#d2e7bd" /><linearGradient
       x1="348.1738"
       y1="-266.7012"
       x2="348.1738"
       y2="-594.35107"
       id="SVGID_1_"
       gradientUnits="userSpaceOnUse"
       gradientTransform="matrix(1,0,0,-1,-168,-249)"><stop
         id="stop8"
         style="stop-color:#84c560;stop-opacity:1"
         offset="0" /><stop
         id="stop10"
         style="stop-color:#3b6b33;stop-opacity:1"
         offset="1" /></linearGradient><path
       d="m 330.434,234.805 c 5.744,-16.702 8.868,-34.624 8.868,-53.279 0,-90.479 -73.348,-163.824 -163.828,-163.824 -90.478,0 -163.825,73.345 -163.825,163.824 0,90.481 73.346,163.825 163.825,163.825 25.566,0 49.76,-5.858 71.324,-16.303 10.703,8.333 24.142,13.316 38.725,13.316 34.839,0 63.179,-28.337 63.179,-63.176 -10e-4,-17.285 -6.982,-32.966 -18.268,-44.383 z"
       id="path12"
       style="fill:url(#SVGID_1_)" /><g
       id="g14"
       style="opacity:0.4"><path
         d="m 174.905,41.522 c 77.312,0 140.242,61.345 142.851,138.025 0.03,-1.201 0.128,-2.381 0.128,-3.585 0,-78.967 -63.992,-142.977 -142.979,-142.977 -78.952,0 -142.981,64.015 -142.981,142.977 0,1.433 0.073,2.851 0.107,4.26 2.266,-76.977 65.351,-138.7 142.874,-138.7 z"
         id="path16"
         style="fill:#0f1622" /></g><path
       d="m 285.046,330.073 c -27.891,0 -50.58,-22.693 -50.58,-50.582 0,-27.895 22.692,-50.587 50.58,-50.587 27.894,0 50.583,22.696 50.583,50.587 -0.003,27.889 -22.69,50.582 -50.583,50.582 z"
       id="path18"
       style="fill:#84c560" /><path
       d="m 231.327,312.373 c -0.644,-0.82 -1.302,-1.778 -1.896,-2.88 -16.83,6.982 -34.598,10.899 -53.958,10.899 -39.22,0 -74.73,-15.815 -100.525,-41.404 -5.29,-5.978 5.343,-28.886 5.343,-28.886 0,0 -9.355,7.968 -11.806,11.959 -4.66,7.622 -2.169,15.383 2.645,21.442 26.094,28.403 62.727,45.409 104.346,45.409 20.421,0 39.837,-4.285 57.405,-12.004 0.373,-0.165 0.739,-0.321 1.106,-0.485 -0.934,-1.319 -1.826,-2.662 -2.66,-4.05 z"
       id="path20"
       style="opacity:0.6;fill:#84c560" /><g
       id="g22"><path
         d="m 56.885,200.044 c -3.29,-22.62 -3.349,-66.079 33.432,-102.844 24.014,-24.018 55.344,-36.613 88.218,-35.478 30.403,1.04 59.871,13.677 80.846,34.646 22.587,22.581 35.177,52.511 35.455,84.274 0.007,0.369 0.007,0.726 0.007,1.095 0,12.013 -1.796,23.771 -5.25,34.978 8.116,0.583 15.811,2.692 22.792,6.069 4.089,-13.585 6.154,-27.827 6.062,-42.36 C 318.09,142.446 303.064,106.66 276.084,79.679 250.92,54.532 215.683,39.374 179.353,38.136 139.87,36.768 102.326,51.811 73.636,80.506 c -27.053,27.05 -41.688,63.022 -41.688,101.099 0,7.221 0.526,14.507 1.592,21.842 1.788,12.252 5.482,24.681 10.996,36.922 2.673,5.938 9.661,8.583 15.597,5.919 5.949,-2.687 8.598,-9.668 5.919,-15.609 C 61.5,220.58 58.333,209.992 56.885,200.044 z"
         id="path24"
         style="fill:#22421f" /><path
         d="m 223.241,291.399 c -45.081,19.856 -96.675,7.573 -129.133,-21.853 l 35.517,-35.528 c 6.813,-5.72 10.189,-16.459 3.696,-26.75 -0.211,-0.321 -19.908,-33.38 6.731,-60.028 21.831,-21.83 53.184,-17.527 69.691,-1.007 9.421,9.417 14.658,21.673 14.749,34.521 0,0.103 0,0.228 0,0.324 0,13.052 -5.435,25.655 -15.325,35.552 -11.968,11.95 -28.694,16.438 -45.897,12.282 -6.329,-1.539 -12.707,2.361 -14.241,8.682 -1.525,6.336 2.362,12.714 8.687,14.25 25.017,6.05 50.478,-0.862 68.133,-18.526 14.485,-14.479 22.477,-33.162 22.225,-52.728 -0.118,-19.08 -7.812,-37.223 -21.643,-51.05 -24.533,-24.537 -70.911,-31.127 -103.054,1.005 -31.961,31.969 -19.75,72.128 -11.114,87.45 l -38.087,38.103 c -8.786,8.78 -6.917,20.154 -0.679,26.379 42.837,42.833 106.057,53.07 158.359,30.628 -4.132,-6.526 -7.108,-13.857 -8.615,-21.706 z"
         id="path26"
         style="fill:#22421f" /></g><path
       d="m 221.473,279.707 c 0,-35.03 28.392,-63.422 63.419,-63.422 17.418,0 33.192,7.021 44.653,18.389 5.963,-17.19 9.221,-35.679 9.221,-54.938 0,-15.01 -1.987,-29.565 -5.684,-43.386 -30.994,46.266 -78.396,80.621 -135.928,92.844 -67.354,14.298 -134.346,-4.752 -185.126,-46.288 1.667,89.986 74.156,162.426 163.351,162.426 25.082,0 48.842,-5.732 70.078,-15.972 -14.609,-11.62 -23.984,-29.536 -23.984,-49.653 z"
       id="path28"
       style="opacity:0.15;fill:#22421f" /><polygon
       points="275.684,288.065 309.655,260.342 313.88,264.563 275.681,308.626 256.215,283.292 264.847,274.293 "
       id="polygon30"
       style="fill:#22421f" /></g></svg>