<?xml version="1.0" encoding="UTF-8" standalone="no"?>
<!-- Created with Inkscape (http://www.inkscape.org/) -->

<svg
   xmlns:dc="http://purl.org/dc/elements/1.1/"
   xmlns:cc="http://creativecommons.org/ns#"
   xmlns:rdf="http://www.w3.org/1999/02/22-rdf-syntax-ns#"
   xmlns:svg="http://www.w3.org/2000/svg"
   xmlns="http://www.w3.org/2000/svg"
   version="1.1"
   width="231.19699"
   height="285.11752"
   viewBox="0 0 231.19699 285.11752"
   id="Layer_1"
   xml:space="preserve"><metadata
     id="metadata49"><rdf:RDF><cc:Work
         rdf:about=""><dc:format>image/svg+xml</dc:format><dc:type
           rdf:resource="http://purl.org/dc/dcmitype/StillImage" /><dc:title></dc:title></cc:Work></rdf:RDF></metadata><defs
     id="defs47" /><g
     transform="translate(-58.746,-30.969491)"
     id="g3"><path
       d="m 229.942,173.241 c -13.11,0 -23.777,-10.668 -23.777,-23.777 0,-13.11 10.667,-23.777 23.777,-23.777 13.11,0 23.776,10.667 23.776,23.777 0.001,13.109 -10.663,23.777 -23.776,23.777 z"
       id="path5"
       style="fill:#40602e" /><g
       id="g7"><path
         d="m 122.691,112.118 c -1.546,-10.632 -1.574,-31.062 15.716,-48.346 11.289,-11.287 26.015,-17.211 41.468,-16.674 14.292,0.49 28.144,6.428 38.002,16.285 10.618,10.613 16.535,24.686 16.667,39.613 0.002,0.173 0.002,0.341 0.002,0.516 0,5.646 -0.843,11.174 -2.468,16.44 3.814,0.272 7.434,1.269 10.714,2.854 1.922,-6.388 2.894,-13.08 2.85,-19.912 C 245.475,85.04 238.412,68.218 225.729,55.539 213.9,43.716 197.335,36.594 180.26,36.01 c -18.56,-0.645 -36.207,6.43 -49.693,19.918 -12.717,12.715 -19.596,29.625 -19.596,47.521 0,3.396 0.248,6.82 0.749,10.271 0.839,5.758 2.576,11.6 5.168,17.354 1.257,2.793 4.541,4.035 7.333,2.783 2.798,-1.266 4.042,-4.545 2.781,-7.338 -2.14,-4.748 -3.629,-9.725 -4.311,-14.401 z"
         id="path9"
         style="fill:#69af45" /><path
         d="m 200.891,155.062 c -21.191,9.332 -45.444,3.562 -60.699,-10.271 l 16.695,-16.701 c 3.202,-2.688 4.79,-7.735 1.736,-12.573 -0.098,-0.15 -9.356,-15.689 3.164,-28.218 10.263,-10.263 25,-8.239 32.76,-0.478 4.428,4.432 6.891,10.188 6.933,16.229 0,0.048 0,0.104 0,0.149 0,6.138 -2.555,12.062 -7.202,16.711 -5.626,5.619 -13.49,7.729 -21.576,5.771 -2.975,-0.725 -5.973,1.105 -6.694,4.082 -0.717,2.979 1.11,5.979 4.083,6.697 11.761,2.845 23.729,-0.405 32.027,-8.707 6.808,-6.808 10.565,-15.588 10.449,-24.783 -0.059,-8.974 -3.674,-17.5 -10.173,-23.998 -11.533,-11.535 -33.333,-14.631 -48.443,0.471 -15.025,15.029 -9.285,33.906 -5.224,41.109 l -17.902,17.908 c -4.132,4.131 -3.252,9.475 -0.32,12.401 20.137,20.134 49.854,24.944 74.438,14.396 -1.947,-3.061 -3.343,-6.506 -4.052,-10.195 z"
         id="path11"
         style="fill:#69af45" /></g><polygon
       points="216.391,150.478 220.447,146.248 225.542,152.724 241.511,139.688 243.496,141.674 225.54,162.388 "
       id="polygon13"
       style="fill:#ffffff" /><g
       id="g15"><path
         d="m 106.613,211.741 c 0,0 -14.017,-1.714 -19.865,-1.714 -9.89,0 -15.133,3.534 -15.133,11.397 0,9.076 4.844,10.592 17.052,13.313 13.918,3.124 20.071,6.556 20.071,18.769 0,15.429 -8.471,21.479 -22.295,21.479 -8.274,0 -22.09,-2.225 -22.09,-2.225 l 0.803,-6.455 c 0,0 13.724,1.816 20.883,1.816 9.887,0 14.929,-4.338 14.929,-14.021 0,-7.867 -4.136,-10.082 -15.533,-12.309 -14.424,-3.123 -21.689,-6.557 -21.689,-19.863 0,-13.521 8.875,-18.77 22.496,-18.77 8.271,0 21.083,2.016 21.083,2.016 l -0.712,6.567 z"
         id="path17"
         style="fill:#3a3b3b" /><path
         d="m 164.309,272.972 c -4.943,1.004 -12.607,2.119 -19.266,2.119 -20.877,0 -25.518,-12.709 -25.518,-35.711 0,-23.602 4.54,-36.109 25.518,-36.109 7.161,0 14.834,1.312 19.266,2.223 l -0.3,6.555 c -4.54,-0.805 -12.712,-1.812 -18.152,-1.812 -15.536,0 -18.264,9.278 -18.264,29.148 0,19.473 2.522,28.746 18.466,28.746 5.644,0 13.108,-0.902 17.951,-1.811 l 0.299,6.652 z"
         id="path19"
         style="fill:#3a3b3b" /><path
         d="m 190.03,204.278 h 16.943 l 19.169,69.807 h -7.666 l -5.046,-17.96 h -29.86 l -5.042,17.96 h -7.666 l 19.168,-69.807 z m -4.742,44.886 h 26.429 L 201.125,210.94 h -5.248 l -10.589,38.224 z"
         id="path21"
         style="fill:#3a3b3b" /><path
         d="m 244.898,250.579 v 23.504 h -7.768 v -69.807 h 25.525 c 15.226,0 22.288,7.36 22.288,22.49 0,15.232 -7.062,23.811 -22.288,23.811 h -17.758 v 0.002 z m 17.652,-6.859 c 10.189,0 14.428,-6.16 14.428,-16.949 0,-10.686 -4.238,-15.635 -14.428,-15.635 h -17.652 v 32.584 h 17.652 z"
         id="path23"
         style="fill:#3a3b3b" /></g><g
       id="g25"><path
         d="m 92.979,291.963 2.321,15.53 h 0.415 l 3.372,-15.53 h 4.421 l 3.371,15.53 h 0.415 l 2.32,-15.53 h 4.007 l -3.592,18.791 h -5.774 l -2.957,-14.286 -2.957,14.286 h -5.776 l -3.592,-18.791 h 4.006 z"
         id="path27"
         style="fill:#676767" /><path
         d="m 116.748,301.469 c 0,-6.354 1.879,-9.837 7.793,-9.837 5.914,0 7.792,3.48 7.792,9.837 0,6.357 -1.879,9.617 -7.792,9.617 -5.915,0 -7.793,-3.261 -7.793,-9.617 z m 11.661,0 c 0,-4.338 -0.773,-6.521 -3.869,-6.521 -3.095,0 -3.869,2.184 -3.869,6.521 0,4.339 0.774,6.301 3.869,6.301 3.096,0.001 3.869,-1.962 3.869,-6.301 z"
         id="path29"
         style="fill:#676767" /><path
         d="m 140.792,304.452 v 6.302 h -3.812 v -18.791 h 7.295 c 4.283,0 6.632,1.907 6.632,6.188 0,2.6 -1.05,4.338 -2.763,5.416 l 2.68,7.187 h -4.172 l -2.183,-6.302 h -3.677 z m 3.482,-9.228 h -3.482 v 5.971 h 3.537 c 1.907,0 2.681,-1.326 2.681,-2.982 0,-1.802 -0.911,-2.989 -2.736,-2.989 z"
         id="path31"
         style="fill:#676767" /><path
         d="m 161.853,303.267 -2.542,0.275 v 7.211 h -3.813 v -18.791 h 3.813 v 8.264 l 2.542,-0.274 3.095,-7.983 h 4.338 l -4.09,9.422 4.201,9.369 h -4.396 l -3.148,-7.493 z"
         id="path33"
         style="fill:#676767" /><path
         d="m 180.646,291.963 c 3.786,0 5.856,1.382 5.856,4.976 0,2.127 -0.58,3.205 -2.071,4.146 1.603,0.689 2.432,1.854 2.432,4.283 0,3.758 -2.349,5.391 -6.107,5.391 h -7.488 v -18.791 l 7.378,-0.005 0,0 z m -3.565,3.261 v 4.479 h 3.399 c 1.492,0 2.155,-0.771 2.155,-2.268 0,-1.547 -0.746,-2.211 -2.184,-2.211 h -3.37 z m 0,7.683 v 4.586 h 3.482 c 1.575,0 2.432,-0.471 2.432,-2.32 0,-1.549 -0.912,-2.267 -2.432,-2.267 l -3.482,10e-4 0,0 z"
         id="path35"
         style="fill:#676767" /><path
         d="m 191.481,291.963 h 12.159 v 3.315 h -8.346 v 4.395 h 6.688 v 3.262 h -6.688 v 4.504 h 8.346 v 3.314 h -12.159 v -18.79 z"
         id="path37"
         style="fill:#676767" /><path
         d="m 208.175,291.963 h 6.438 l 4.532,15.476 h 0.275 v -15.476 h 3.813 v 18.791 h -6.273 l -4.697,-15.476 h -0.276 v 15.476 h -3.813 l 0.001,-18.791 0,0 z"
         id="path39"
         style="fill:#676767" /><path
         d="m 240.619,310.45 c -1.271,0.275 -3.758,0.637 -5.472,0.637 -5.803,0 -7.185,-3.149 -7.185,-9.729 0,-7.13 1.603,-9.729 7.185,-9.729 1.962,0 4.338,0.472 5.499,0.746 l -0.11,3.039 C 239.265,295.223 236.944,295 235.7,295 c -2.9,0 -3.812,1.021 -3.812,6.354 0,5.058 0.663,6.354 3.924,6.354 1.271,0 3.62,-0.222 4.725,-0.388 l 0.082,3.13 z"
         id="path41"
         style="fill:#676767" /><path
         d="m 255.903,302.961 h -6.991 v 7.793 H 245.1 v -18.791 h 3.812 v 7.683 h 6.991 v -7.683 h 3.813 v 18.791 h -3.813 v -7.793 z"
         id="path43"
         style="fill:#676767" /></g></g></svg>